<svg xmlns="http://www.w3.org/2000/svg" xmlns:xlink="http://www.w3.org/1999/xlink" width="300" zoomAndPan="magnify" viewBox="0 0 224.87999 149.999998" height="200" preserveAspectRatio="xMidYMid meet" version="1.0"><defs><g/><clipPath id="id1"><path d="M 83 46 L 142 46 L 142 104 L 83 104 Z M 83 46 " clip-rule="nonzero"/></clipPath><clipPath id="id2"><path d="M 111.679688 31.183594 L 156.433594 74.402344 L 113.214844 119.160156 L 68.460938 75.941406 Z M 111.679688 31.183594 " clip-rule="nonzero"/></clipPath><clipPath id="id3"><path d="M 111.679688 31.183594 L 156.433594 74.402344 L 113.214844 119.160156 L 68.460938 75.941406 Z M 111.679688 31.183594 " clip-rule="nonzero"/></clipPath><clipPath id="id4"><path d="M 209 72 L 224.761719 72 L 224.761719 92 L 209 92 Z M 209 72 " clip-rule="nonzero"/></clipPath></defs><g clip-path="url(#id1)"><g clip-path="url(#id2)"><g clip-path="url(#id3)"><path fill="#050a30" d="M 141.117188 89.953125 C 141.125 89.785156 141.058594 89.609375 140.902344 89.457031 C 135.9375 84.664062 130.976562 79.871094 126.011719 75.078125 C 125.9375 75.007812 125.867188 74.9375 125.792969 74.867188 C 130.414062 70.082031 135.035156 65.296875 139.65625 60.511719 C 139.878906 60.285156 140.097656 60.054688 140.316406 59.828125 C 140.585938 59.550781 140.578125 59.09375 140.300781 58.824219 C 136.136719 54.800781 131.972656 50.78125 127.804688 46.757812 C 127.527344 46.488281 127.070312 46.5 126.800781 46.777344 C 122.015625 51.730469 117.234375 56.6875 112.445312 61.644531 C 112.390625 61.703125 112.335938 61.757812 112.277344 61.816406 C 107.484375 57.1875 102.691406 52.558594 97.898438 47.933594 C 97.65625 47.699219 97.414062 47.464844 97.171875 47.230469 C 96.894531 46.960938 96.4375 46.96875 96.167969 47.246094 C 92.144531 51.410156 88.125 55.578125 84.101562 59.742188 C 83.832031 60.019531 83.84375 60.476562 84.121094 60.746094 C 89.082031 65.539062 94.046875 70.332031 99.011719 75.125 C 99.082031 75.191406 99.15625 75.261719 99.226562 75.332031 C 94.59375 80.132812 89.957031 84.933594 85.320312 89.734375 C 85.070312 89.992188 84.824219 90.25 84.574219 90.507812 C 84.304688 90.785156 84.316406 91.242188 84.59375 91.511719 C 88.757812 95.53125 92.921875 99.554688 97.085938 103.574219 C 97.367188 103.84375 97.820312 103.835938 98.089844 103.558594 C 102.890625 98.585938 107.691406 93.617188 112.492188 88.644531 C 112.574219 88.558594 112.660156 88.472656 112.742188 88.382812 C 117.535156 93.011719 122.328125 97.640625 127.125 102.269531 C 127.367188 102.503906 127.609375 102.738281 127.851562 102.972656 C 128.128906 103.242188 128.585938 103.234375 128.855469 102.953125 C 132.875 98.789062 136.898438 94.625 140.917969 90.460938 C 141.074219 90.300781 141.128906 90.125 141.117188 89.953125 " fill-opacity="1" fill-rule="nonzero"/></g></g></g><g fill="#ff5757" fill-opacity="1"><g transform="translate(0.0236929, 75.939846)"><g><path d="M 1.640625 -19.203125 L 13.15625 -19.203125 C 15.082031 -19.203125 16.476562 -18.765625 17.34375 -17.890625 C 18.207031 -17.023438 18.640625 -15.632812 18.640625 -13.71875 L 18.640625 -10.96875 C 18.640625 -9.050781 18.207031 -7.65625 17.34375 -6.78125 C 16.476562 -5.914062 15.082031 -5.484375 13.15625 -5.484375 L 6.578125 -5.484375 L 6.578125 0 L 1.640625 0 Z M 13.71875 -13.71875 C 13.71875 -14.8125 13.164062 -15.359375 12.0625 -15.359375 L 6.578125 -15.359375 L 6.578125 -9.328125 L 12.0625 -9.328125 C 13.164062 -9.328125 13.71875 -9.875 13.71875 -10.96875 Z M 13.71875 -13.71875 "/></g></g></g><g fill="#ff5757" fill-opacity="1"><g transform="translate(19.492348, 75.939846)"><g><path d="M 5.078125 0 L -0.28125 0 L 7 -19.203125 L 12.484375 -19.203125 L 19.75 0 L 14.390625 0 L 13.15625 -3.421875 L 6.3125 -3.421875 Z M 7.546875 -7 L 11.921875 -7 L 9.734375 -13.4375 Z M 7.546875 -7 "/></g></g></g><g fill="#ff5757" fill-opacity="1"><g transform="translate(38.961003, 75.939846)"><g><path d="M 12.34375 -19.203125 C 14.40625 -19.203125 15.96875 -18.664062 17.03125 -17.59375 C 18.101562 -16.519531 18.640625 -14.953125 18.640625 -12.890625 L 18.640625 -6.3125 C 18.640625 -4.238281 18.101562 -2.664062 17.03125 -1.59375 C 15.96875 -0.53125 14.40625 0 12.34375 0 L 1.640625 0 L 1.640625 -19.203125 Z M 13.71875 -12.890625 C 13.71875 -14.535156 12.894531 -15.359375 11.25 -15.359375 L 6.578125 -15.359375 L 6.578125 -3.84375 L 11.25 -3.84375 C 12.894531 -3.84375 13.71875 -4.664062 13.71875 -6.3125 Z M 13.71875 -12.890625 "/></g></g></g><g fill="#ff5757" fill-opacity="1"><g transform="translate(58.703862, 75.939846)"><g><path d="M 16.859375 0 L 1.640625 0 L 1.640625 -19.203125 L 16.859375 -19.203125 L 16.859375 -15.359375 L 6.578125 -15.359375 L 6.578125 -11.65625 L 14.671875 -11.65625 L 14.671875 -7.8125 L 6.578125 -7.8125 L 6.578125 -3.84375 L 16.859375 -3.84375 Z M 16.859375 0 "/></g></g></g><g fill="#ff5757" fill-opacity="1"><g transform="translate(76.115966, 75.939846)"><g><path d="M 6.578125 -3.84375 L 16.59375 -3.84375 L 16.59375 0 L 1.640625 0 L 1.640625 -19.203125 L 6.578125 -19.203125 Z M 6.578125 -3.84375 "/></g></g></g><g fill="#ff5757" fill-opacity="1"><g transform="translate(92.979662, 75.939846)"><g><path d="M 5.078125 0 L -0.28125 0 L 7 -19.203125 L 12.484375 -19.203125 L 19.75 0 L 14.390625 0 L 13.15625 -3.421875 L 6.3125 -3.421875 Z M 7.546875 -7 L 11.921875 -7 L 9.734375 -13.4375 Z M 7.546875 -7 "/></g></g></g><g fill="#ff5757" fill-opacity="1"><g transform="translate(119.043574, 91.838932)"><g><path d="M 13.984375 -13.984375 C 13.984375 -15.078125 13.4375 -15.625 12.34375 -15.625 L 7.671875 -15.625 C 6.578125 -15.625 6.03125 -15.078125 6.03125 -13.984375 L 6.03125 -5.203125 C 6.03125 -4.109375 6.578125 -3.5625 7.671875 -3.5625 L 12.34375 -3.5625 C 13.4375 -3.5625 13.984375 -4.109375 13.984375 -5.203125 Z M 18.921875 -5.203125 C 18.921875 -3.285156 18.484375 -1.890625 17.609375 -1.015625 C 16.742188 -0.148438 15.351562 0.28125 13.4375 0.28125 L 6.578125 0.28125 C 4.660156 0.28125 3.265625 -0.148438 2.390625 -1.015625 C 1.523438 -1.890625 1.09375 -3.285156 1.09375 -5.203125 L 1.09375 -13.984375 C 1.09375 -15.898438 1.523438 -17.289062 2.390625 -18.15625 C 3.265625 -19.03125 4.660156 -19.46875 6.578125 -19.46875 L 13.4375 -19.46875 C 15.351562 -19.46875 16.742188 -19.03125 17.609375 -18.15625 C 18.484375 -17.289062 18.921875 -15.898438 18.921875 -13.984375 Z M 18.921875 -5.203125 "/></g></g></g><g fill="#ff5757" fill-opacity="1"><g transform="translate(139.060646, 91.838932)"><g><path d="M 18.375 0 L 13.15625 0 L 6.578125 -11.515625 L 6.578125 0 L 1.640625 0 L 1.640625 -19.203125 L 6.859375 -19.203125 L 13.4375 -7.671875 L 13.4375 -19.203125 L 18.375 -19.203125 Z M 18.375 0 "/></g></g></g><g fill="#ff5757" fill-opacity="1"><g transform="translate(159.077717, 91.838932)"><g><path d="M 6.578125 -3.84375 L 16.59375 -3.84375 L 16.59375 0 L 1.640625 0 L 1.640625 -19.203125 L 6.578125 -19.203125 Z M 6.578125 -3.84375 "/></g></g></g><g fill="#ff5757" fill-opacity="1"><g transform="translate(175.941412, 91.838932)"><g><path d="M 10.6875 0 L 0.828125 0 L 0.828125 -3.84375 L 3.296875 -3.84375 L 3.296875 -15.359375 L 0.828125 -15.359375 L 0.828125 -19.203125 L 10.6875 -19.203125 L 10.6875 -15.359375 L 8.234375 -15.359375 L 8.234375 -3.84375 L 10.6875 -3.84375 Z M 10.6875 0 "/></g></g></g><g fill="#ff5757" fill-opacity="1"><g transform="translate(187.458083, 91.838932)"><g><path d="M 18.375 0 L 13.15625 0 L 6.578125 -11.515625 L 6.578125 0 L 1.640625 0 L 1.640625 -19.203125 L 6.859375 -19.203125 L 13.4375 -7.671875 L 13.4375 -19.203125 L 18.375 -19.203125 Z M 18.375 0 "/></g></g></g><g clip-path="url(#id4)"><g fill="#ff5757" fill-opacity="1"><g transform="translate(207.475154, 91.838932)"><g><path d="M 16.859375 0 L 1.640625 0 L 1.640625 -19.203125 L 16.859375 -19.203125 L 16.859375 -15.359375 L 6.578125 -15.359375 L 6.578125 -11.65625 L 14.671875 -11.65625 L 14.671875 -7.8125 L 6.578125 -7.8125 L 6.578125 -3.84375 L 16.859375 -3.84375 Z M 16.859375 0 "/></g></g></g></g></svg>